<svg id="Layer_1" data-name="Layer 1" xmlns="http://www.w3.org/2000/svg" viewBox="0 0 283.46 283.46"><defs><style>.cls-1{font-size:42.88px;font-family:Nobel-Light, Nobel;font-weight:300;letter-spacing:-0.02em;}.cls-1,.cls-5{fill:#ccc;}.cls-2,.cls-3{fill:#fff;}.cls-2{font-family:Nobel-Bold, Nobel;font-weight:700;letter-spacing:-0.03em;}.cls-4{fill:#404040;}.cls-6{fill:#9c9c9c;}.cls-7{fill:#737373;}.cls-8{fill:#595959;}</style></defs><text class="cls-1" transform="translate(21.16 249.44)">Token<tspan class="cls-2" x="110.33" y="0">SPICE</tspan></text><polygon class="cls-3" points="144.32 33.16 150.65 47.73 166.54 39.28 144.32 33.16"/><polygon class="cls-3" points="55.2 117.56 59.48 127.43 70.25 121.71 55.2 117.56"/><polygon class="cls-3" points="150.56 65.9 153.39 80.53 170.61 72.23 150.56 65.9"/><polygon class="cls-3" points="147.99 154.12 144.09 166.96 162.12 160.38 147.99 154.12"/><polygon class="cls-4" points="86.57 67.8 89.23 78.1 93.61 67.73 86.57 67.8"/><polygon class="cls-4" points="93.12 75.98 94.85 87.3 100.19 77.33 93.12 75.98"/><polygon class="cls-4" points="102.16 83.69 103.91 95.5 109.2 86.47 102.16 83.69"/><polygon class="cls-4" points="92.49 61.84 95.16 73.15 101.39 61.46 92.49 61.84"/><polygon class="cls-4" points="99.37 71.03 101.62 83.05 109.08 71.81 99.37 71.03"/><polygon class="cls-4" points="108.53 80.04 110.37 92.59 120.62 81.43 108.53 80.04"/><polygon class="cls-4" points="203.52 69.61 205.52 83.31 214.22 79.6 203.52 69.61"/><polygon class="cls-4" points="203.8 54.47 206.98 68.99 213.35 64.53 203.8 54.47"/><polygon class="cls-4" points="204.02 40.42 208.15 54.7 212.96 50.86 204.02 40.42"/><polygon class="cls-4" points="212.26 57.97 214.96 71.93 219.47 67.84 212.26 57.97"/><polygon class="cls-4" points="211.16 43.31 214.96 57.71 221.46 54.75 211.16 43.31"/><polygon class="cls-4" points="108.62 94.34 109.88 106.53 116.3 98.05 108.62 94.34"/><polygon class="cls-4" points="119.61 104.42 120.14 117.12 127.19 109.06 119.61 104.42"/><polygon class="cls-4" points="127.58 116.08 127.27 128.91 134.31 121.44 127.58 116.08"/><polygon class="cls-4" points="173.71 140.25 170.11 153.44 176.9 147.09 173.71 140.25"/><polygon class="cls-4" points="197.2 82.91 197.55 97.46 205.47 91.96 197.2 82.91"/><polygon class="cls-4" points="197.83 98.67 196.79 112.97 203.59 106.76 197.83 98.67"/><polygon class="cls-4" points="205.3 84.68 205.64 98.82 211.37 93.63 205.3 84.68"/><polygon class="cls-5" points="191.79 51.23 195.65 65.82 204.71 61.37 191.79 51.23"/><polygon class="cls-5" points="115.8 91.21 117.26 104.04 127.08 94.37 115.8 91.21"/><polygon class="cls-5" points="149.28 167.71 144.65 179.9 154.41 173.67 149.28 167.71"/><polygon class="cls-5" points="153.5 126.57 151.14 140.46 169.17 133.31 153.5 126.57"/><polygon class="cls-5" points="154.89 97.46 154.69 111.89 172.86 104.28 154.89 97.46"/><polygon class="cls-6" points="94.8 23.48 101.13 38.05 117.02 29.6 94.8 23.48"/><polygon class="cls-6" points="156.43 48.25 160.42 63.38 177.04 56.39 156.43 48.25"/><polygon class="cls-6" points="169.46 65.05 172.34 79.4 188.75 73.29 169.46 65.05"/><polygon class="cls-6" points="163.44 31.45 169.87 46.85 183.04 41.41 163.44 31.45"/><polygon class="cls-6" points="133.6 69.56 136.38 83.88 151.25 73.21 133.6 69.56"/><polygon class="cls-6" points="126.69 38.27 132.32 52.44 147.55 40.54 126.69 38.27"/><polygon class="cls-6" points="137.23 51.88 141.57 66.27 157.85 56.48 137.23 51.88"/><polygon class="cls-6" points="141.01 127.51 138.96 140.94 152.2 133.85 141.01 127.51"/><polygon class="cls-6" points="142.83 140.94 139.74 154.45 157.76 147.09 142.83 140.94"/><polygon class="cls-6" points="171.09 126.18 168.28 139.96 179.52 133.61 171.09 126.18"/><polygon class="cls-6" points="163.81 111.93 162.44 126.1 180.52 119.25 163.81 111.93"/><polygon class="cls-6" points="145.68 112.97 144.67 126.93 162.77 119.29 145.68 112.97"/><polygon class="cls-6" points="137.99 99.85 137.99 113.95 154.61 104.84 137.99 99.85"/><polygon class="cls-6" points="144.26 83.05 145.41 97.69 163.35 88.44 144.26 83.05"/><polygon class="cls-6" points="163.2 80.8 164.04 95.85 181.41 88.46 163.2 80.8"/><polygon class="cls-6" points="173.29 96.86 172.72 111.36 188.6 104.8 173.29 96.86"/><polygon class="cls-7" points="175.21 48.39 179.77 63.38 193.6 58.62 175.21 48.39"/><polygon class="cls-7" points="188.13 65.68 189.98 80.74 203.96 76.11 188.13 65.68"/><polygon class="cls-7" points="109.9 47.56 114.17 60.37 129.27 45.73 109.9 47.56"/><polygon class="cls-7" points="119.18 58.85 122.66 72.78 139.22 59.32 119.18 58.85"/><polygon class="cls-7" points="180.44 33.45 186.76 48.71 195.4 44.34 180.44 33.45"/><polygon class="cls-7" points="159.97 140.27 156.44 153.73 171.72 146.91 159.97 140.27"/><polygon class="cls-7" points="181.06 126.42 178.25 140.2 186.49 133.77 181.06 126.42"/><polygon class="cls-7" points="181.84 111.81 179.87 126.18 191.57 119.71 181.84 111.81"/><polygon class="cls-7" points="126.93 87.35 128.38 100.95 144.45 90.68 126.93 87.35"/><polygon class="cls-7" points="181.38 81.08 182.28 95.85 197.36 90.5 181.38 81.08"/><polygon class="cls-7" points="134.81 114.49 134.31 128.12 144.91 120.32 134.81 114.49"/><polygon class="cls-8" points="99.93 54.98 103.48 67.27 111.89 54.32 99.93 54.98"/><polygon class="cls-8" points="216.31 108.14 219.85 120.43 228.27 107.48 216.31 108.14"/><polygon class="cls-8" points="107.81 65.08 110.87 77.88 120.63 65.94 107.81 65.08"/><polygon class="cls-8" points="119.92 74.73 122.07 87.96 134.23 77.12 119.92 74.73"/><polygon class="cls-8" points="192.86 36.47 198.79 51.6 204.79 47.6 192.86 36.47"/><polygon class="cls-8" points="133.79 128.91 132.48 142.01 139.38 135.01 133.79 128.91"/><polygon class="cls-8" points="164.62 153.8 160.38 166.29 166.54 160.16 164.62 153.8"/><polygon class="cls-8" points="189.05 97.61 188.33 111.93 197.22 105.76 189.05 97.61"/><polygon class="cls-8" points="192.89 112.92 190.81 126.42 196.79 120.29 192.89 112.92"/><polygon class="cls-8" points="127.19 102.25 127.55 115.56 137.78 107.08 127.19 102.25"/></svg>