<svg id="Layer_1" data-name="Layer 1" xmlns="http://www.w3.org/2000/svg" viewBox="0 0 283.46 283.46"><defs><style>.cls-1,.cls-7{fill:#8200bf;}.cls-2{fill:#ba12dd;}.cls-3{fill:#ff43ff;}.cls-4{fill:#ff80ff;}.cls-5{fill:#4b008c;}.cls-6{font-size:42.88px;font-family:Nobel-Light, Nobel;font-weight:300;letter-spacing:-0.02em;}.cls-7{font-family:Nobel-Bold, Nobel;font-weight:700;letter-spacing:-0.03em;}</style></defs><polygon class="cls-1" points="94.8 22.39 101.13 36.96 117.02 28.52 94.8 22.39"/><polygon class="cls-1" points="156.43 47.16 160.42 62.3 177.04 55.3 156.43 47.16"/><polygon class="cls-1" points="169.46 63.96 172.34 78.31 188.75 72.2 169.46 63.96"/><polygon class="cls-1" points="163.44 30.37 169.87 45.76 183.04 40.33 163.44 30.37"/><polygon class="cls-2" points="175.21 47.3 179.77 62.3 193.6 57.53 175.21 47.3"/><polygon class="cls-2" points="188.13 64.59 189.98 79.66 203.96 75.03 188.13 64.59"/><polygon class="cls-2" points="109.9 46.48 114.17 59.28 129.27 44.65 109.9 46.48"/><polygon class="cls-2" points="119.18 57.77 122.66 71.7 139.22 58.23 119.18 57.77"/><polygon class="cls-1" points="133.6 68.47 136.38 82.79 151.25 72.12 133.6 68.47"/><polygon class="cls-2" points="180.44 32.36 186.76 47.63 195.4 43.26 180.44 32.36"/><polygon class="cls-1" points="126.69 37.18 132.32 51.35 147.55 39.45 126.69 37.18"/><polygon class="cls-1" points="137.23 50.79 141.57 65.18 157.85 55.39 137.23 50.79"/><polygon class="cls-1" points="141.01 126.43 138.96 139.86 152.2 132.77 141.01 126.43"/><polygon class="cls-1" points="142.83 139.86 139.74 153.37 157.76 146 142.83 139.86"/><polygon class="cls-2" points="159.97 139.18 156.44 152.64 171.72 145.82 159.97 139.18"/><polygon class="cls-3" points="149.28 166.63 144.65 178.81 154.41 172.59 149.28 166.63"/><polygon class="cls-2" points="181.06 125.33 178.25 139.11 186.49 132.69 181.06 125.33"/><polygon class="cls-1" points="171.09 125.09 168.28 138.87 179.52 132.53 171.09 125.09"/><polygon class="cls-2" points="181.84 110.73 179.87 125.09 191.57 118.63 181.84 110.73"/><polygon class="cls-4" points="86.57 66.72 89.23 77.01 93.61 66.65 86.57 66.72"/><polygon class="cls-4" points="93.12 74.9 94.85 86.22 100.19 76.24 93.12 74.9"/><polygon class="cls-4" points="102.16 82.6 103.91 94.41 109.2 85.38 102.16 82.6"/><polygon class="cls-3" points="92.49 60.75 95.16 72.06 101.39 60.37 92.49 60.75"/><polygon class="cls-3" points="99.37 69.94 101.62 81.96 109.08 70.73 99.37 69.94"/><polygon class="cls-3" points="108.53 78.95 110.37 91.5 120.62 80.35 108.53 78.95"/><polygon class="cls-4" points="203.52 68.52 205.52 82.22 214.22 78.51 203.52 68.52"/><polygon class="cls-3" points="203.8 53.38 206.98 67.9 213.35 63.44 203.8 53.38"/><polygon class="cls-3" points="204.02 39.33 208.15 53.61 212.96 49.77 204.02 39.33"/><polygon class="cls-4" points="212.26 56.89 214.96 70.85 219.47 66.76 212.26 56.89"/><polygon class="cls-4" points="211.16 42.23 214.96 56.63 221.46 53.66 211.16 42.23"/><polygon class="cls-4" points="108.62 93.26 109.88 105.44 116.3 96.96 108.62 93.26"/><polygon class="cls-4" points="119.61 103.33 120.14 116.04 127.19 107.97 119.61 103.33"/><polygon class="cls-4" points="127.58 114.99 127.27 127.83 134.31 120.35 127.58 114.99"/><polygon class="cls-4" points="173.71 139.16 170.11 152.35 176.9 146 173.71 139.16"/><polygon class="cls-3" points="197.2 81.82 197.55 96.37 205.47 90.87 197.2 81.82"/><polygon class="cls-4" points="197.83 97.58 196.79 111.88 203.59 105.68 197.83 97.58"/><polygon class="cls-4" points="205.3 83.59 205.64 97.73 211.37 92.54 205.3 83.59"/><polygon class="cls-1" points="163.81 110.84 162.44 125.02 180.52 118.16 163.81 110.84"/><polygon class="cls-1" points="145.68 111.88 144.67 125.85 162.77 118.2 145.68 111.88"/><polygon class="cls-1" points="137.99 98.76 137.99 112.87 154.61 103.76 137.99 98.76"/><polygon class="cls-2" points="126.93 86.26 128.38 99.86 144.45 89.59 126.93 86.26"/><polygon class="cls-1" points="144.26 81.96 145.41 96.6 163.35 87.35 144.26 81.96"/><polygon class="cls-1" points="163.2 79.71 164.04 94.77 181.41 87.38 163.2 79.71"/><polygon class="cls-2" points="181.38 79.99 182.28 94.77 197.36 89.42 181.38 79.99"/><polygon points="55.2 116.47 59.48 126.34 70.25 120.62 55.2 116.47"/><polygon points="147.99 153.04 144.09 165.87 162.12 159.29 147.99 153.04"/><polygon points="144.32 32.07 150.65 46.64 166.54 38.2 144.32 32.07"/><polygon class="cls-5" points="191.79 50.14 195.65 64.73 204.71 60.28 191.79 50.14"/><polygon points="150.56 64.82 153.39 79.44 170.61 71.15 150.56 64.82"/><polygon class="cls-5" points="115.8 90.12 117.26 102.95 127.08 93.28 115.8 90.12"/><polygon class="cls-5" points="153.5 125.48 151.14 139.37 169.17 132.22 153.5 125.48"/><polygon class="cls-5" points="154.89 96.37 154.69 110.81 172.86 103.2 154.89 96.37"/><polygon class="cls-1" points="173.29 95.77 172.72 110.28 188.6 103.71 173.29 95.77"/><polygon class="cls-2" points="134.81 113.41 134.31 127.03 144.91 119.23 134.81 113.41"/><polygon class="cls-2" points="99.93 53.9 103.48 66.18 111.89 53.24 99.93 53.9"/><polygon class="cls-2" points="216.31 107.05 219.85 119.34 228.27 106.39 216.31 107.05"/><polygon class="cls-2" points="107.81 64 110.87 76.8 120.63 64.86 107.81 64"/><polygon class="cls-2" points="119.92 73.65 122.07 86.87 134.23 76.03 119.92 73.65"/><polygon class="cls-2" points="192.86 35.38 198.79 50.51 204.79 46.52 192.86 35.38"/><polygon class="cls-2" points="133.79 127.83 132.48 140.93 139.38 133.92 133.79 127.83"/><polygon class="cls-2" points="164.62 152.71 160.38 165.2 166.54 159.08 164.62 152.71"/><polygon class="cls-2" points="189.05 96.53 188.33 110.84 197.22 104.67 189.05 96.53"/><polygon class="cls-2" points="192.89 111.83 190.81 125.33 196.79 119.2 192.89 111.83"/><polygon class="cls-2" points="127.19 101.16 127.55 114.47 137.78 105.99 127.19 101.16"/><text class="cls-6" transform="translate(21.16 250.53)">Token<tspan class="cls-7" x="110.33" y="0">SPICE</tspan></text></svg>