<svg id="Layer_1" data-name="Layer 1" xmlns="http://www.w3.org/2000/svg" viewBox="0 0 283.46 283.46"><defs><style>.cls-1,.cls-7{fill:#fff;}.cls-2{fill:#4b008c;}.cls-3{fill:#ffaef4;}.cls-4,.cls-8{fill:#ff43ff;}.cls-5{fill:#ba12dd;}.cls-6{fill:#8200bf;}.cls-7{font-size:42.88px;font-family:Nobel-Light, Nobel;font-weight:300;letter-spacing:-0.02em;}.cls-8{font-family:Nobel-Bold, Nobel;font-weight:700;letter-spacing:-0.03em;}</style></defs><polygon class="cls-1" points="144.32 31.79 150.65 46.36 166.54 37.92 144.32 31.79"/><polygon class="cls-1" points="55.2 116.2 59.48 126.06 70.25 120.34 55.2 116.2"/><polygon class="cls-1" points="150.56 64.54 153.39 79.16 170.61 70.87 150.56 64.54"/><polygon class="cls-1" points="147.99 152.76 144.09 165.6 162.12 159.01 147.99 152.76"/><polygon class="cls-2" points="86.57 66.44 89.23 76.73 93.61 66.37 86.57 66.44"/><polygon class="cls-2" points="93.12 74.62 94.85 85.94 100.19 75.96 93.12 74.62"/><polygon class="cls-2" points="102.16 82.32 103.91 94.13 109.2 85.11 102.16 82.32"/><polygon class="cls-2" points="92.49 60.47 95.16 71.78 101.39 60.09 92.49 60.47"/><polygon class="cls-2" points="99.37 69.67 101.62 81.68 109.08 70.45 99.37 69.67"/><polygon class="cls-2" points="108.53 78.68 110.37 91.23 120.62 80.07 108.53 78.68"/><polygon class="cls-2" points="203.52 68.24 205.52 81.95 214.22 78.23 203.52 68.24"/><polygon class="cls-2" points="203.8 53.1 206.98 67.62 213.35 63.16 203.8 53.1"/><polygon class="cls-2" points="204.02 39.05 208.15 53.33 212.96 49.5 204.02 39.05"/><polygon class="cls-2" points="212.26 56.61 214.96 70.57 219.47 66.48 212.26 56.61"/><polygon class="cls-2" points="211.16 41.95 214.96 56.35 221.46 53.38 211.16 41.95"/><polygon class="cls-2" points="108.62 92.98 109.88 105.17 116.3 96.68 108.62 92.98"/><polygon class="cls-2" points="119.61 103.05 120.14 115.76 127.19 107.69 119.61 103.05"/><polygon class="cls-2" points="127.58 114.71 127.27 127.55 134.31 120.07 127.58 114.71"/><polygon class="cls-2" points="173.71 138.89 170.11 152.07 176.9 145.72 173.71 138.89"/><polygon class="cls-2" points="197.2 81.55 197.55 96.09 205.47 90.6 197.2 81.55"/><polygon class="cls-2" points="197.83 97.3 196.79 111.6 203.59 105.4 197.83 97.3"/><polygon class="cls-2" points="205.3 83.31 205.64 97.45 211.37 92.26 205.3 83.31"/><polygon class="cls-3" points="191.79 49.86 195.65 64.45 204.71 60 191.79 49.86"/><polygon class="cls-3" points="115.8 89.85 117.26 102.67 127.08 93 115.8 89.85"/><polygon class="cls-3" points="149.28 166.35 144.65 178.53 154.41 172.31 149.28 166.35"/><polygon class="cls-3" points="153.5 125.2 151.14 139.09 169.17 131.94 153.5 125.2"/><polygon class="cls-3" points="154.89 96.09 154.69 110.53 172.86 102.92 154.89 96.09"/><polygon class="cls-4" points="94.8 22.11 101.13 36.68 117.02 28.24 94.8 22.11"/><polygon class="cls-4" points="156.43 46.89 160.42 62.02 177.04 55.02 156.43 46.89"/><polygon class="cls-4" points="169.46 63.69 172.34 78.03 188.75 71.92 169.46 63.69"/><polygon class="cls-4" points="163.44 30.09 169.87 45.48 183.04 40.05 163.44 30.09"/><polygon class="cls-4" points="133.6 68.2 136.38 82.51 151.25 71.84 133.6 68.2"/><polygon class="cls-4" points="126.69 36.9 132.32 51.07 147.55 39.17 126.69 36.9"/><polygon class="cls-4" points="137.23 50.51 141.57 64.91 157.85 55.11 137.23 50.51"/><polygon class="cls-4" points="141.01 126.15 138.96 139.58 152.2 132.49 141.01 126.15"/><polygon class="cls-4" points="142.83 139.58 139.74 153.09 157.76 145.72 142.83 139.58"/><polygon class="cls-4" points="171.09 124.81 168.28 138.59 179.52 132.25 171.09 124.81"/><polygon class="cls-4" points="163.81 110.56 162.44 124.74 180.52 117.89 163.81 110.56"/><polygon class="cls-4" points="145.68 111.6 144.67 125.57 162.77 117.92 145.68 111.6"/><polygon class="cls-4" points="137.99 98.48 137.99 112.59 154.61 103.48 137.99 98.48"/><polygon class="cls-4" points="144.26 81.68 145.41 96.32 163.35 87.07 144.26 81.68"/><polygon class="cls-4" points="163.2 79.43 164.04 94.49 181.41 87.1 163.2 79.43"/><polygon class="cls-4" points="173.29 95.5 172.72 110 188.6 103.43 173.29 95.5"/><polygon class="cls-5" points="175.21 47.02 179.77 62.02 193.6 57.25 175.21 47.02"/><polygon class="cls-5" points="188.13 64.32 189.98 79.38 203.96 74.75 188.13 64.32"/><polygon class="cls-5" points="109.9 46.2 114.17 59 129.27 44.37 109.9 46.2"/><polygon class="cls-5" points="119.18 57.49 122.66 71.42 139.22 57.95 119.18 57.49"/><polygon class="cls-5" points="180.44 32.08 186.76 47.35 195.4 42.98 180.44 32.08"/><polygon class="cls-5" points="159.97 138.9 156.44 152.36 171.72 145.54 159.97 138.9"/><polygon class="cls-5" points="181.06 125.06 178.25 138.84 186.49 132.41 181.06 125.06"/><polygon class="cls-5" points="181.84 110.45 179.87 124.81 191.57 118.35 181.84 110.45"/><polygon class="cls-5" points="126.93 85.98 128.38 99.58 144.45 89.31 126.93 85.98"/><polygon class="cls-5" points="181.38 79.71 182.28 94.49 197.36 89.14 181.38 79.71"/><polygon class="cls-5" points="134.81 113.13 134.31 126.75 144.91 118.96 134.81 113.13"/><polygon class="cls-6" points="99.93 53.62 103.48 65.91 111.89 52.96 99.93 53.62"/><polygon class="cls-6" points="216.31 106.77 219.85 119.06 228.27 106.11 216.31 106.77"/><polygon class="cls-6" points="107.81 63.72 110.87 76.52 120.63 64.58 107.81 63.72"/><polygon class="cls-6" points="119.92 73.37 122.07 86.59 134.23 75.75 119.92 73.37"/><polygon class="cls-6" points="192.86 35.1 198.79 50.23 204.79 46.24 192.86 35.1"/><polygon class="cls-6" points="133.79 127.55 132.48 140.65 139.38 133.64 133.79 127.55"/><polygon class="cls-6" points="164.62 152.43 160.38 164.93 166.54 158.8 164.62 152.43"/><polygon class="cls-6" points="189.05 96.25 188.33 110.56 197.22 104.39 189.05 96.25"/><polygon class="cls-6" points="192.89 111.55 190.81 125.06 196.79 118.92 192.89 111.55"/><polygon class="cls-6" points="127.19 100.89 127.55 114.19 137.78 105.72 127.19 100.89"/><text class="cls-7" transform="translate(21.16 250.8)">Token<tspan class="cls-8" x="110.33" y="0">SPICE</tspan></text></svg>